<svg viewBox="0 0 561 451" fill="none" xmlns="http://www.w3.org/2000/svg">
<g clip-path="url(#clip0_305_54)">
<rect width="561" height="451" fill="white"/>
<mask id="path-1-inside-1_305_54" fill="white">
<rect width="561" height="451" rx="10"/>
</mask>
<rect width="561" height="451" rx="10" stroke="#428FD9" stroke-width="30" mask="url(#path-1-inside-1_305_54)"/>
<line x1="3" y1="93.5" x2="561" y2="93.5" stroke="#418FD9" stroke-width="15"/>
<line x1="70" y1="49" x2="91" y2="49" stroke="#418FD9" stroke-width="20" stroke-linecap="round"/>
<line x1="177" y1="49" x2="227" y2="49" stroke="#418FD9" stroke-width="20" stroke-linecap="round"/>
<line x1="76" y1="216" x2="157" y2="216" stroke="#418FD9" stroke-width="20" stroke-linecap="round"/>
<line x1="76" y1="253" x2="157" y2="253" stroke="#418FD9" stroke-width="20" stroke-linecap="round"/>
<line x1="323" y1="49" x2="507" y2="49" stroke="#418FD9" stroke-width="20" stroke-linecap="round"/>
<path d="M75.675 331.3H89.55L82.8 311.65H82.65L75.675 331.3ZM76.8 298.45H88.875L108.9 352H96.675L92.625 340.075H72.6L68.4 352H56.55L76.8 298.45ZM125.293 323.65H134.443C135.793 323.65 137.093 323.55 138.343 323.35C139.593 323.15 140.693 322.775 141.643 322.225C142.593 321.625 143.343 320.8 143.893 319.75C144.493 318.7 144.793 317.325 144.793 315.625C144.793 313.925 144.493 312.55 143.893 311.5C143.343 310.45 142.593 309.65 141.643 309.1C140.693 308.5 139.593 308.1 138.343 307.9C137.093 307.7 135.793 307.6 134.443 307.6H125.293V323.65ZM113.518 298.45H137.668C141.018 298.45 143.868 298.95 146.218 299.95C148.568 300.9 150.468 302.175 151.918 303.775C153.418 305.375 154.493 307.2 155.143 309.25C155.843 311.3 156.193 313.425 156.193 315.625C156.193 317.775 155.843 319.9 155.143 322C154.493 324.05 153.418 325.875 151.918 327.475C150.468 329.075 148.568 330.375 146.218 331.375C143.868 332.325 141.018 332.8 137.668 332.8H125.293V352H113.518V298.45ZM163.542 298.45H175.317V352H163.542V298.45Z" fill="#418FD9"/>
<circle cx="360.5" cy="277.5" r="50" stroke="#4290D9" stroke-width="15"/>
<mask id="path-10-inside-2_305_54" fill="white">
<path fill-rule="evenodd" clip-rule="evenodd" d="M349.982 164C349.982 158.477 354.459 154 359.982 154H373.911C379.434 154 383.911 158.477 383.911 164V193.037C395.242 196.125 405.658 201.432 414.663 208.462L433.319 189.806C437.225 185.901 443.556 185.901 447.462 189.806L457.31 199.655C461.216 203.561 461.216 209.892 457.31 213.797L436.924 234.184C442.565 244.071 446.334 255.165 447.75 266.982H474C479.523 266.982 484 271.459 484 276.982V290.911C484 296.434 479.523 300.911 474 300.911H445.209C442.064 312.27 436.687 322.702 429.578 331.704L448.194 350.319C452.099 354.225 452.099 360.556 448.194 364.462L438.345 374.311C434.44 378.216 428.108 378.216 424.203 374.311L403.722 353.83C397.544 357.308 390.902 360.058 383.911 361.963V391C383.911 396.523 379.434 401 373.911 401H359.982C354.459 401 349.982 396.523 349.982 391V364.369C338.292 362.923 327.316 359.172 317.523 353.585L296.797 374.311C292.892 378.216 286.56 378.216 282.655 374.311L272.806 364.462C268.901 360.556 268.901 354.225 272.806 350.32L291.802 331.324C284.841 322.409 279.57 312.111 276.469 300.911H247C241.477 300.911 237 296.434 237 290.911L237 276.982C237 271.459 241.477 266.982 247 266.982H273.929C275.323 255.337 279.004 244.395 284.509 234.617L263.69 213.797C259.784 209.892 259.784 203.56 263.69 199.655L273.539 189.806C277.444 185.901 283.775 185.901 287.681 189.806L306.635 208.761C318.865 199.104 333.734 192.641 349.982 190.631V164Z"/>
</mask>
<path d="M383.911 193.037H373.911V200.676L381.281 202.685L383.911 193.037ZM414.663 208.462L408.509 216.345L415.48 221.787L421.734 215.534L414.663 208.462ZM447.462 189.806L440.39 196.877L440.39 196.877L447.462 189.806ZM457.31 199.655L450.239 206.726L450.239 206.726L457.31 199.655ZM457.31 213.797L450.239 206.726L450.239 206.726L457.31 213.797ZM436.924 234.184L429.853 227.113L424.456 232.51L428.238 239.14L436.924 234.184ZM447.75 266.982L437.821 268.171L438.876 276.982H447.75V266.982ZM445.209 300.911V290.911H437.602L435.572 298.242L445.209 300.911ZM429.578 331.704L421.73 325.507L416.219 332.486L422.507 338.775L429.578 331.704ZM403.722 353.83L410.793 346.759L405.428 341.394L398.816 345.116L403.722 353.83ZM383.911 361.963L381.281 352.315L373.911 354.324V361.963H383.911ZM349.982 364.369H359.982V355.53L351.21 354.445L349.982 364.369ZM317.523 353.585L322.479 344.899L315.849 341.116L310.452 346.514L317.523 353.585ZM296.797 374.311L289.726 367.24L289.726 367.24L296.797 374.311ZM282.655 374.311L289.726 367.24L289.726 367.24L282.655 374.311ZM272.806 364.462L279.877 357.391L279.877 357.391L272.806 364.462ZM272.806 350.32L279.877 357.391L279.877 357.391L272.806 350.32ZM291.802 331.324L298.873 338.395L305.127 332.141L299.684 325.17L291.802 331.324ZM276.469 300.911L286.107 298.242L284.077 290.911H276.469V300.911ZM237 290.911L247 290.911L237 290.911ZM237 276.982L247 276.982L237 276.982ZM273.929 266.982V276.982H282.803L283.858 268.171L273.929 266.982ZM284.509 234.617L293.223 239.523L296.946 232.911L291.58 227.546L284.509 234.617ZM263.69 213.797L256.618 220.868L256.618 220.868L263.69 213.797ZM263.69 199.655L270.761 206.726L270.761 206.726L263.69 199.655ZM273.539 189.806L266.467 182.735L266.467 182.735L273.539 189.806ZM306.635 208.761L299.564 215.832L305.853 222.121L312.833 216.609L306.635 208.761ZM349.982 190.631L351.21 200.555L359.982 199.47V190.631H349.982ZM359.982 144C348.936 144 339.982 152.954 339.982 164H359.982V164V144ZM373.911 144H359.982V164H373.911V144ZM393.911 164C393.911 152.954 384.956 144 373.911 144V164H393.911ZM393.911 193.037V164H373.911V193.037H393.911ZM381.281 202.685C391.305 205.416 400.528 210.113 408.509 216.345L420.817 200.58C410.788 192.75 399.179 186.833 386.54 183.388L381.281 202.685ZM426.248 182.735L407.592 201.391L421.734 215.534L440.39 196.877L426.248 182.735ZM454.533 182.735C446.722 174.925 434.059 174.925 426.248 182.735L440.39 196.877L440.39 196.877L454.533 182.735ZM464.382 192.584L454.533 182.735L440.39 196.877L450.239 206.726L464.382 192.584ZM464.382 220.869C472.192 213.058 472.192 200.395 464.382 192.584L450.239 206.726V206.726L464.382 220.869ZM443.995 241.255L464.382 220.869L450.239 206.726L429.853 227.113L443.995 241.255ZM428.238 239.14C433.232 247.893 436.568 257.709 437.821 268.171L457.679 265.793C456.101 252.621 451.898 240.25 445.61 229.228L428.238 239.14ZM474 256.982H447.75V276.982H474V256.982ZM494 276.982C494 265.936 485.046 256.982 474 256.982V276.982H494ZM494 290.911V276.982H474V290.911H494ZM474 310.911C485.046 310.911 494 301.956 494 290.911H474V290.911V310.911ZM445.209 310.911H474V290.911H445.209V310.911ZM435.572 298.242C432.79 308.291 428.03 317.528 421.73 325.507L437.427 337.901C445.343 327.876 451.339 316.249 454.847 303.579L435.572 298.242ZM455.265 343.248L436.649 324.633L422.507 338.775L441.123 357.391L455.265 343.248ZM455.265 371.533C463.075 363.722 463.075 351.059 455.265 343.248L441.123 357.391V357.391L455.265 371.533ZM445.416 381.382L455.265 371.533L441.123 357.391L431.274 367.24L445.416 381.382ZM417.132 381.382C424.942 389.192 437.605 389.192 445.416 381.382L431.274 367.24H431.274L417.132 381.382ZM396.651 360.901L417.132 381.382L431.274 367.24L410.793 346.759L396.651 360.901ZM398.816 345.116C393.346 348.196 387.467 350.63 381.281 352.315L386.54 371.611C394.337 369.487 401.743 366.42 408.628 362.544L398.816 345.116ZM393.911 391V361.963H373.911V391H393.911ZM373.911 411C384.956 411 393.911 402.046 393.911 391H373.911V411ZM359.982 411H373.911V391H359.982V411ZM339.982 391C339.982 402.046 348.936 411 359.982 411V391H359.982H339.982ZM339.982 364.369V391H359.982V364.369H339.982ZM351.21 354.445C340.861 353.164 331.149 349.845 322.479 344.899L312.568 362.27C323.483 368.498 335.723 372.681 348.754 374.293L351.21 354.445ZM303.868 381.382L324.594 360.656L310.452 346.514L289.726 367.24L303.868 381.382ZM275.584 381.382C283.395 389.192 296.058 389.192 303.868 381.382L289.726 367.24L289.726 367.24L275.584 381.382ZM265.735 371.533L275.584 381.382L289.726 367.24L279.877 357.391L265.735 371.533ZM265.735 343.248C257.925 351.059 257.925 363.722 265.735 371.533L279.877 357.391L279.877 357.391L265.735 343.248ZM284.731 324.253L265.735 343.248L279.877 357.391L298.873 338.395L284.731 324.253ZM299.684 325.17C293.515 317.268 288.85 308.15 286.107 298.242L266.832 303.579C270.29 316.071 276.168 327.549 283.92 337.478L299.684 325.17ZM247 310.911H276.469V290.911H247V310.911ZM227 290.911C227 301.956 235.954 310.911 247 310.911V290.911L247 290.911L227 290.911ZM227 276.982L227 290.911L247 290.911L247 276.982L227 276.982ZM247 256.982C235.954 256.982 227 265.936 227 276.982L247 276.982L247 276.982V256.982ZM273.929 256.982H247V276.982H273.929V256.982ZM283.858 268.171C285.093 257.862 288.349 248.179 293.223 239.523L275.795 229.711C269.659 240.611 265.554 252.813 264 265.793L283.858 268.171ZM256.618 220.868L277.438 241.688L291.58 227.546L270.761 206.726L256.618 220.868ZM256.618 192.584C248.808 200.395 248.808 213.058 256.618 220.868L270.761 206.726L270.761 206.726L256.618 192.584ZM266.467 182.735L256.618 192.584L270.761 206.726L280.61 196.877L266.467 182.735ZM294.752 182.735C286.941 174.925 274.278 174.925 266.467 182.735L280.61 196.877L280.61 196.877L294.752 182.735ZM313.706 201.69L294.752 182.735L280.61 196.877L299.564 215.832L313.706 201.69ZM312.833 216.609C323.67 208.051 336.831 202.334 351.21 200.555L348.754 180.707C330.637 182.948 314.06 190.157 300.438 200.913L312.833 216.609ZM339.982 164V190.631H359.982V164H339.982Z" fill="#418FDA" mask="url(#path-10-inside-2_305_54)"/>
</g>
<defs>
<clipPath id="clip0_305_54">
<rect width="561" height="451" fill="white"/>
</clipPath>
</defs>
</svg>
