<svg viewBox="0 0 561 459" fill="none" xmlns="http://www.w3.org/2000/svg">
<path fill-rule="evenodd" clip-rule="evenodd" d="M241 43.9995C235.477 43.9995 231 48.4767 231 53.9995V64.2182C231 82.0363 209.457 90.9596 196.858 78.3603L189.569 71.071C185.663 67.1657 179.332 67.1657 175.426 71.071L140.071 106.426C136.166 110.332 136.166 116.663 140.071 120.568L146.86 127.357C159.459 139.957 150.536 161.499 132.718 161.499H123.5C117.977 161.499 113.5 165.977 113.5 171.499L113.5 221.499C113.5 227.022 117.977 231.499 123.5 231.499H132.883C150.701 231.499 159.625 253.042 147.025 265.642L140.071 272.596C136.166 276.501 136.166 282.833 140.071 286.738L175.426 322.093C179.332 325.999 185.663 325.999 189.569 322.093L196.858 314.804C209.457 302.205 231 311.128 231 328.946V339C231 344.522 235.477 349 241 349H291C296.523 349 301 344.522 301 339V329.782C301 311.964 322.543 303.04 335.142 315.64L341.596 322.094C345.502 325.999 351.833 325.999 355.739 322.094L391.094 286.739C394.999 282.833 394.999 276.502 391.094 272.596L384.139 265.642C371.54 253.042 380.463 231.5 398.281 231.5H408.5C414.023 231.5 418.5 227.022 418.5 221.5V171.5C418.5 165.977 414.023 161.5 408.5 161.5H398.447C380.629 161.5 371.705 139.957 384.305 127.357L391.094 120.568C394.999 116.663 394.999 110.331 391.094 106.426L355.739 71.0706C351.833 67.1653 345.502 67.1653 341.596 71.0706L335.142 77.5249C322.543 90.1242 301 81.2009 301 63.3828V53.9995C301 48.4767 296.523 43.9995 291 43.9995H241Z" fill="#418FDA"/>
<circle cx="266" cy="197" r="117.5" fill="#418FDA" stroke="#418FDA" stroke-width="15"/>
<circle cx="266.5" cy="196.5" r="64.5" stroke="#F5F5F5" stroke-width="20"/>
<mask id="path-4-inside-1_305_54" fill="white">
<path fill-rule="evenodd" clip-rule="evenodd" d="M48.266 36.9995C44.0621 45.3058 35.446 51 25.5 51C11.4167 51 0 39.5833 0 25.5C0 11.4167 11.4167 0 25.5 0C34.6254 0 42.6312 4.79332 47.137 11.9995H135.5H141H150.5C156.023 11.9995 160.5 16.4767 160.5 21.9995V61.9995C160.5 67.5224 156.023 71.9995 150.5 71.9995H145.5C139.977 71.9995 135.5 67.5224 135.5 61.9995V46.9995C135.5 41.4767 131.023 36.9995 125.5 36.9995H48.266Z"/>
</mask>
<path fill-rule="evenodd" clip-rule="evenodd" d="M48.266 36.9995C44.0621 45.3058 35.446 51 25.5 51C11.4167 51 0 39.5833 0 25.5C0 11.4167 11.4167 0 25.5 0C34.6254 0 42.6312 4.79332 47.137 11.9995H135.5H141H150.5C156.023 11.9995 160.5 16.4767 160.5 21.9995V61.9995C160.5 67.5224 156.023 71.9995 150.5 71.9995H145.5C139.977 71.9995 135.5 67.5224 135.5 61.9995V46.9995C135.5 41.4767 131.023 36.9995 125.5 36.9995H48.266Z" fill="#418FDA"/>
<path d="M48.266 36.9995V35.9995H47.6514L47.3738 36.5479L48.266 36.9995ZM47.137 11.9995L46.2891 12.5297L46.5829 12.9995H47.137V11.9995ZM47.3738 36.5479C43.3335 44.5309 35.0545 50 25.5 50V52C35.8375 52 44.7907 46.0806 49.1583 37.4511L47.3738 36.5479ZM25.5 50C11.969 50 1 39.031 1 25.5H-1C-1 40.1355 10.8645 52 25.5 52V50ZM1 25.5C1 11.969 11.969 1 25.5 1V-1C10.8645 -1 -1 10.8645 -1 25.5H1ZM25.5 1C34.2664 1 41.9584 5.60349 46.2891 12.5297L47.9849 11.4693C43.304 3.98316 34.9843 -1 25.5 -1V1ZM135.5 10.9995H47.137V12.9995H135.5V10.9995ZM141 10.9995H135.5V12.9995H141V10.9995ZM150.5 10.9995H141V12.9995H150.5V10.9995ZM161.5 21.9995C161.5 15.9244 156.575 10.9995 150.5 10.9995V12.9995C155.471 12.9995 159.5 17.0289 159.5 21.9995H161.5ZM161.5 61.9995V21.9995H159.5V61.9995H161.5ZM150.5 72.9995C156.575 72.9995 161.5 68.0746 161.5 61.9995H159.5C159.5 66.9701 155.471 70.9995 150.5 70.9995V72.9995ZM145.5 72.9995H150.5V70.9995H145.5V72.9995ZM134.5 61.9995C134.5 68.0746 139.425 72.9995 145.5 72.9995V70.9995C140.529 70.9995 136.5 66.9701 136.5 61.9995H134.5ZM134.5 46.9995V61.9995H136.5V46.9995H134.5ZM125.5 37.9995C130.471 37.9995 134.5 42.0289 134.5 46.9995H136.5C136.5 40.9244 131.575 35.9995 125.5 35.9995V37.9995ZM48.266 37.9995H125.5V35.9995H48.266V37.9995Z" fill="black" mask="url(#path-4-inside-1_305_54)"/>
<mask id="path-6-inside-2_305_54" fill="white">
<path fill-rule="evenodd" clip-rule="evenodd" d="M497.234 338C501.438 329.694 510.054 324 520 324C534.083 324 545.5 335.417 545.5 349.5C545.5 363.583 534.083 375 520 375C510.875 375 502.869 370.207 498.363 363H410H404.5H395C389.477 363 385 358.523 385 353V313C385 307.478 389.477 303 395 303H400C405.523 303 410 307.478 410 313V328C410 333.523 414.477 338 420 338H497.234Z"/>
</mask>
<path fill-rule="evenodd" clip-rule="evenodd" d="M497.234 338C501.438 329.694 510.054 324 520 324C534.083 324 545.5 335.417 545.5 349.5C545.5 363.583 534.083 375 520 375C510.875 375 502.869 370.207 498.363 363H410H404.5H395C389.477 363 385 358.523 385 353V313C385 307.478 389.477 303 395 303H400C405.523 303 410 307.478 410 313V328C410 333.523 414.477 338 420 338H497.234Z" fill="#418FDA"/>
<path d="M497.234 338V339H497.849L498.126 338.452L497.234 338ZM498.363 363L499.211 362.47L498.917 362H498.363V363ZM498.126 338.452C502.167 330.469 510.445 325 520 325V323C509.662 323 500.709 328.919 496.342 337.549L498.126 338.452ZM520 325C533.531 325 544.5 335.969 544.5 349.5H546.5C546.5 334.864 534.636 323 520 323V325ZM544.5 349.5C544.5 363.031 533.531 374 520 374V376C534.636 376 546.5 364.136 546.5 349.5H544.5ZM520 374C511.234 374 503.542 369.397 499.211 362.47L497.515 363.531C502.196 371.017 510.516 376 520 376V374ZM410 364H498.363V362H410V364ZM404.5 364H410V362H404.5V364ZM395 364H404.5V362H395V364ZM384 353C384 359.076 388.925 364 395 364V362C390.029 362 386 357.971 386 353H384ZM384 313V353H386V313H384ZM395 302C388.925 302 384 306.925 384 313H386C386 308.03 390.029 304 395 304V302ZM400 302H395V304H400V302ZM411 313C411 306.925 406.075 302 400 302V304C404.971 304 409 308.03 409 313H411ZM411 328V313H409V328H411ZM420 337C415.029 337 411 332.971 411 328H409C409 334.076 413.925 339 420 339V337ZM497.234 337H420V339H497.234V337Z" fill="black" mask="url(#path-6-inside-2_305_54)"/>
<mask id="path-8-inside-3_305_54" fill="white">
<path fill-rule="evenodd" clip-rule="evenodd" d="M48.266 348C44.0621 339.694 35.446 334 25.5 334C11.4167 334 0 345.417 0 359.5C0 373.583 11.4167 385 25.5 385C34.6254 385 42.6312 380.207 47.137 373H135.5H141H150.5C156.023 373 160.5 368.523 160.5 363V323C160.5 317.478 156.023 313 150.5 313H145.5C139.977 313 135.5 317.478 135.5 323V338C135.5 343.523 131.023 348 125.5 348H48.266Z"/>
</mask>
<path fill-rule="evenodd" clip-rule="evenodd" d="M48.266 348C44.0621 339.694 35.446 334 25.5 334C11.4167 334 0 345.417 0 359.5C0 373.583 11.4167 385 25.5 385C34.6254 385 42.6312 380.207 47.137 373H135.5H141H150.5C156.023 373 160.5 368.523 160.5 363V323C160.5 317.478 156.023 313 150.5 313H145.5C139.977 313 135.5 317.478 135.5 323V338C135.5 343.523 131.023 348 125.5 348H48.266Z" fill="#418FDA"/>
<path d="M48.266 348V349H47.6514L47.3738 348.452L48.266 348ZM47.137 373L46.2891 372.47L46.5829 372H47.137V373ZM47.3738 348.452C43.3335 340.469 35.0545 335 25.5 335V333C35.8375 333 44.7907 338.919 49.1583 347.549L47.3738 348.452ZM25.5 335C11.969 335 1 345.969 1 359.5H-1C-1 344.864 10.8645 333 25.5 333V335ZM1 359.5C1 373.031 11.969 384 25.5 384V386C10.8645 386 -1 374.136 -1 359.5H1ZM25.5 384C34.2664 384 41.9584 379.397 46.2891 372.47L47.9849 373.531C43.304 381.017 34.9843 386 25.5 386V384ZM135.5 374H47.137V372H135.5V374ZM141 374H135.5V372H141V374ZM150.5 374H141V372H150.5V374ZM161.5 363C161.5 369.076 156.575 374 150.5 374V372C155.471 372 159.5 367.971 159.5 363H161.5ZM161.5 323V363H159.5V323H161.5ZM150.5 312C156.575 312 161.5 316.925 161.5 323H159.5C159.5 318.03 155.471 314 150.5 314V312ZM145.5 312H150.5V314H145.5V312ZM134.5 323C134.5 316.925 139.425 312 145.5 312V314C140.529 314 136.5 318.03 136.5 323H134.5ZM134.5 338V323H136.5V338H134.5ZM125.5 347C130.471 347 134.5 342.971 134.5 338H136.5C136.5 344.076 131.575 349 125.5 349V347ZM48.266 347H125.5V349H48.266V347Z" fill="black" mask="url(#path-8-inside-3_305_54)"/>
<mask id="path-10-inside-4_305_54" fill="white">
<path fill-rule="evenodd" clip-rule="evenodd" d="M48.5572 189.595C44.4694 180.967 35.6815 175 25.5 175C11.4167 175 0 186.417 0 200.5C0 214.583 11.4167 226 25.5 226C34.363 226 42.17 221.478 46.7398 214.616L94.0007 214.108C99.5232 214.048 103.952 209.523 103.893 204.001L103.839 199.001C103.779 193.479 99.2544 189.05 93.7319 189.109L48.5572 189.595Z"/>
</mask>
<path fill-rule="evenodd" clip-rule="evenodd" d="M48.5572 189.595C44.4694 180.967 35.6815 175 25.5 175C11.4167 175 0 186.417 0 200.5C0 214.583 11.4167 226 25.5 226C34.363 226 42.17 221.478 46.7398 214.616L94.0007 214.108C99.5232 214.048 103.952 209.523 103.893 204.001L103.839 199.001C103.779 193.479 99.2544 189.05 93.7319 189.109L48.5572 189.595Z" fill="#418FDA"/>
<path d="M48.5572 189.595L48.568 190.595L47.9277 190.602L47.6535 190.023L48.5572 189.595ZM46.7398 214.616L45.9075 214.062L46.2005 213.622L46.7291 213.616L46.7398 214.616ZM94.0007 214.108L94.0114 215.108L94.0114 215.108L94.0007 214.108ZM103.893 204.001L104.893 203.99L104.893 203.99L103.893 204.001ZM103.839 199.001L102.839 199.012L102.839 199.012L103.839 199.001ZM93.7319 189.109L93.7426 190.109L93.7426 190.109L93.7319 189.109ZM47.6535 190.023C43.7249 181.731 35.2808 176 25.5 176V174C36.0823 174 45.2139 180.203 49.4609 189.167L47.6535 190.023ZM25.5 176C11.969 176 1 186.969 1 200.5H-1C-1 185.864 10.8645 174 25.5 174V176ZM1 200.5C1 214.031 11.969 225 25.5 225V227C10.8645 227 -1 215.136 -1 200.5H1ZM25.5 225C34.0145 225 41.5152 220.657 45.9075 214.062L47.5722 215.17C42.8248 222.299 34.7116 227 25.5 227V225ZM94.0114 215.108L46.7506 215.616L46.7291 213.616L93.9899 213.108L94.0114 215.108ZM104.893 203.99C104.958 210.065 100.086 215.042 94.0114 215.108L93.9899 213.108C98.9602 213.054 102.946 208.982 102.893 204.012L104.893 203.99ZM104.839 198.99L104.893 203.99L102.893 204.012L102.839 199.012L104.839 198.99ZM93.7211 188.109C99.7959 188.044 104.773 192.916 104.839 198.99L102.839 199.012C102.785 194.042 98.7129 190.056 93.7426 190.109L93.7211 188.109ZM48.5465 188.595L93.7211 188.109L93.7426 190.109L48.568 190.595L48.5465 188.595Z" fill="black" mask="url(#path-10-inside-4_305_54)"/>
<mask id="path-12-inside-5_305_54" fill="white">
<path fill-rule="evenodd" clip-rule="evenodd" d="M482.336 189.595C486.424 180.967 495.212 175 505.393 175C519.476 175 530.893 186.417 530.893 200.5C530.893 214.583 519.476 226 505.393 226C496.53 226 488.723 221.478 484.153 214.616L436.892 214.108C431.37 214.048 426.941 209.523 427 204.001L427.054 199.001C427.114 193.479 431.639 189.05 437.161 189.109L482.336 189.595Z"/>
</mask>
<path fill-rule="evenodd" clip-rule="evenodd" d="M482.336 189.595C486.424 180.967 495.212 175 505.393 175C519.476 175 530.893 186.417 530.893 200.5C530.893 214.583 519.476 226 505.393 226C496.53 226 488.723 221.478 484.153 214.616L436.892 214.108C431.37 214.048 426.941 209.523 427 204.001L427.054 199.001C427.114 193.479 431.639 189.05 437.161 189.109L482.336 189.595Z" fill="#418FDA"/>
<path d="M482.336 189.595L482.325 190.595L482.965 190.602L483.24 190.023L482.336 189.595ZM484.153 214.616L484.986 214.062L484.693 213.622L484.164 213.616L484.153 214.616ZM436.892 214.108L436.882 215.108L436.882 215.108L436.892 214.108ZM427 204.001L426.001 203.99L426.001 203.99L427 204.001ZM427.054 199.001L428.054 199.012L428.054 199.012L427.054 199.001ZM437.161 189.109L437.15 190.109L437.15 190.109L437.161 189.109ZM483.24 190.023C487.168 181.731 495.612 176 505.393 176V174C494.811 174 485.679 180.203 481.432 189.167L483.24 190.023ZM505.393 176C518.924 176 529.893 186.969 529.893 200.5H531.893C531.893 185.864 520.029 174 505.393 174V176ZM529.893 200.5C529.893 214.031 518.924 225 505.393 225V227C520.029 227 531.893 215.136 531.893 200.5H529.893ZM505.393 225C496.879 225 489.378 220.657 484.986 214.062L483.321 215.17C488.068 222.299 496.181 227 505.393 227V225ZM436.882 215.108L484.142 215.616L484.164 213.616L436.903 213.108L436.882 215.108ZM426.001 203.99C425.935 210.065 430.807 215.042 436.882 215.108L436.903 213.108C431.933 213.054 427.947 208.982 428 204.012L426.001 203.99ZM426.054 198.99L426.001 203.99L428 204.012L428.054 199.012L426.054 198.99ZM437.172 188.109C431.097 188.044 426.12 192.916 426.054 198.99L428.054 199.012C428.108 194.042 432.18 190.056 437.15 190.109L437.172 188.109ZM482.347 188.595L437.172 188.109L437.15 190.109L482.325 190.595L482.347 188.595Z" fill="black" mask="url(#path-12-inside-5_305_54)"/>
<mask id="path-14-inside-6_305_54" fill="white">
<path fill-rule="evenodd" clip-rule="evenodd" d="M482.234 36.9995C486.438 45.3058 495.054 51 505 51C519.083 51 530.5 39.5833 530.5 25.5C530.5 11.4167 519.083 0 505 0C495.875 0 487.869 4.79332 483.363 11.9995H395H389.5H380C374.477 11.9995 370 16.4767 370 21.9995V61.9995C370 67.5224 374.477 71.9995 380 71.9995H385C390.523 71.9995 395 67.5224 395 61.9995V46.9995C395 41.4767 399.477 36.9995 405 36.9995H482.234Z"/>
</mask>
<path fill-rule="evenodd" clip-rule="evenodd" d="M482.234 36.9995C486.438 45.3058 495.054 51 505 51C519.083 51 530.5 39.5833 530.5 25.5C530.5 11.4167 519.083 0 505 0C495.875 0 487.869 4.79332 483.363 11.9995H395H389.5H380C374.477 11.9995 370 16.4767 370 21.9995V61.9995C370 67.5224 374.477 71.9995 380 71.9995H385C390.523 71.9995 395 67.5224 395 61.9995V46.9995C395 41.4767 399.477 36.9995 405 36.9995H482.234Z" fill="#418FDA"/>
<path d="M482.234 36.9995V35.9995H482.849L483.126 36.5479L482.234 36.9995ZM483.363 11.9995L484.211 12.5297L483.917 12.9995H483.363V11.9995ZM483.126 36.5479C487.167 44.5309 495.445 50 505 50V52C494.662 52 485.709 46.0806 481.342 37.4511L483.126 36.5479ZM505 50C518.531 50 529.5 39.031 529.5 25.5H531.5C531.5 40.1355 519.636 52 505 52V50ZM529.5 25.5C529.5 11.969 518.531 1 505 1V-1C519.636 -1 531.5 10.8645 531.5 25.5H529.5ZM505 1C496.234 1 488.542 5.60349 484.211 12.5297L482.515 11.4693C487.196 3.98316 495.516 -1 505 -1V1ZM395 10.9995H483.363V12.9995H395V10.9995ZM389.5 10.9995H395V12.9995H389.5V10.9995ZM380 10.9995H389.5V12.9995H380V10.9995ZM369 21.9995C369 15.9244 373.925 10.9995 380 10.9995V12.9995C375.029 12.9995 371 17.0289 371 21.9995H369ZM369 61.9995V21.9995H371V61.9995H369ZM380 72.9995C373.925 72.9995 369 68.0746 369 61.9995H371C371 66.9701 375.029 70.9995 380 70.9995V72.9995ZM385 72.9995H380V70.9995H385V72.9995ZM396 61.9995C396 68.0746 391.075 72.9995 385 72.9995V70.9995C389.971 70.9995 394 66.9701 394 61.9995H396ZM396 46.9995V61.9995H394V46.9995H396ZM405 37.9995C400.029 37.9995 396 42.0289 396 46.9995H394C394 40.9244 398.925 35.9995 405 35.9995V37.9995ZM482.234 37.9995H405V35.9995H482.234V37.9995Z" fill="black" mask="url(#path-14-inside-6_305_54)"/>
</svg>
