<svg viewBox="0 0 533 394" fill="none" xmlns="http://www.w3.org/2000/svg">
<g clip-path="url(#clip0_305_54)">
<path fill-rule="evenodd" clip-rule="evenodd" d="M241 43.9995C235.477 43.9995 231 48.4767 231 53.9995V64.2182C231 82.0363 209.457 90.9596 196.858 78.3603L189.569 71.071C185.663 67.1657 179.332 67.1657 175.426 71.071L140.071 106.426C136.166 110.332 136.166 116.663 140.071 120.568L146.86 127.357C159.459 139.957 150.536 161.499 132.718 161.499H123.5C117.977 161.499 113.5 165.977 113.5 171.499L113.5 221.499C113.5 227.022 117.977 231.499 123.5 231.499H132.883C150.701 231.499 159.625 253.042 147.025 265.642L140.071 272.596C136.166 276.501 136.166 282.833 140.071 286.738L175.426 322.093C179.332 325.999 185.663 325.999 189.569 322.093L196.858 314.804C209.457 302.205 231 311.128 231 328.946V339C231 344.522 235.477 349 241 349H291C296.523 349 301 344.522 301 339V329.782C301 311.964 322.543 303.04 335.142 315.64L341.596 322.094C345.502 325.999 351.833 325.999 355.739 322.094L391.094 286.739C394.999 282.833 394.999 276.502 391.094 272.596L384.139 265.642C371.54 253.042 380.463 231.5 398.281 231.5H408.5C414.023 231.5 418.5 227.022 418.5 221.5V171.5C418.5 165.977 414.023 161.5 408.5 161.5H398.447C380.629 161.5 371.705 139.957 384.305 127.357L391.094 120.568C394.999 116.663 394.999 110.331 391.094 106.426L355.739 71.0706C351.833 67.1653 345.502 67.1653 341.596 71.0706L335.142 77.5249C322.543 90.1242 301 81.2009 301 63.3828V53.9995C301 48.4767 296.523 43.9995 291 43.9995H241Z" fill="#418FDA"/>
<circle cx="266" cy="197" r="117.5" fill="#418FDA" stroke="#418FDA" stroke-width="15"/>
<circle cx="266.5" cy="196.5" r="64.5" stroke="#F5F5F5" stroke-width="20"/>
<mask id="path-4-inside-1_305_54" fill="white">
<path fill-rule="evenodd" clip-rule="evenodd" d="M48.266 36.9995C44.0621 45.3058 35.446 51 25.5 51C11.4167 51 0 39.5833 0 25.5C0 11.4167 11.4167 0 25.5 0C34.6254 0 42.6312 4.79332 47.137 11.9995H135.5H141H150.5C156.023 11.9995 160.5 16.4767 160.5 21.9995V61.9995C160.5 67.5224 156.023 71.9995 150.5 71.9995H145.5C139.977 71.9995 135.5 67.5224 135.5 61.9995V46.9995C135.5 41.4767 131.023 36.9995 125.5 36.9995H48.266Z"/>
</mask>
<path fill-rule="evenodd" clip-rule="evenodd" d="M48.266 36.9995C44.0621 45.3058 35.446 51 25.5 51C11.4167 51 0 39.5833 0 25.5C0 11.4167 11.4167 0 25.5 0C34.6254 0 42.6312 4.79332 47.137 11.9995H135.5H141H150.5C156.023 11.9995 160.5 16.4767 160.5 21.9995V61.9995C160.5 67.5224 156.023 71.9995 150.5 71.9995H145.5C139.977 71.9995 135.5 67.5224 135.5 61.9995V46.9995C135.5 41.4767 131.023 36.9995 125.5 36.9995H48.266Z" fill="#418FDA"/>
<path d="M48.266 36.9995V35.9995H47.6514L47.3738 36.5479L48.266 36.9995ZM47.137 11.9995L46.2891 12.5297L46.5829 12.9995H47.137V11.9995ZM47.3738 36.5479C43.3335 44.5309 35.0545 50 25.5 50V52C35.8375 52 44.7907 46.0806 49.1583 37.4511L47.3738 36.5479ZM25.5 50C11.969 50 1 39.031 1 25.5H-1C-1 40.1355 10.8645 52 25.5 52V50ZM1 25.5C1 11.969 11.969 1 25.5 1V-1C10.8645 -1 -1 10.8645 -1 25.5H1ZM25.5 1C34.2664 1 41.9584 5.60349 46.2891 12.5297L47.9849 11.4693C43.304 3.98316 34.9843 -1 25.5 -1V1ZM135.5 10.9995H47.137V12.9995H135.5V10.9995ZM141 10.9995H135.5V12.9995H141V10.9995ZM150.5 10.9995H141V12.9995H150.5V10.9995ZM161.5 21.9995C161.5 15.9244 156.575 10.9995 150.5 10.9995V12.9995C155.471 12.9995 159.5 17.0289 159.5 21.9995H161.5ZM161.5 61.9995V21.9995H159.5V61.9995H161.5ZM150.5 72.9995C156.575 72.9995 161.5 68.0746 161.5 61.9995H159.5C159.5 66.9701 155.471 70.9995 150.5 70.9995V72.9995ZM145.5 72.9995H150.5V70.9995H145.5V72.9995ZM134.5 61.9995C134.5 68.0746 139.425 72.9995 145.5 72.9995V70.9995C140.529 70.9995 136.5 66.9701 136.5 61.9995H134.5ZM134.5 46.9995V61.9995H136.5V46.9995H134.5ZM125.5 37.9995C130.471 37.9995 134.5 42.0289 134.5 46.9995H136.5C136.5 40.9244 131.575 35.9995 125.5 35.9995V37.9995ZM48.266 37.9995H125.5V35.9995H48.266V37.9995Z" fill="black" mask="url(#path-4-inside-1_305_54)"/>
<mask id="path-6-inside-2_305_54" fill="white">
<path fill-rule="evenodd" clip-rule="evenodd" d="M48.266 356C44.0621 347.694 35.446 342 25.5 342C11.4167 342 0 353.417 0 367.5C0 381.583 11.4167 393 25.5 393C34.6254 393 42.6312 388.207 47.137 381H135.5H141H150.5C156.023 381 160.5 376.523 160.5 371V331C160.5 325.478 156.023 321 150.5 321H145.5C139.977 321 135.5 325.478 135.5 331V346C135.5 351.523 131.023 356 125.5 356H48.266Z"/>
</mask>
<path fill-rule="evenodd" clip-rule="evenodd" d="M48.266 356C44.0621 347.694 35.446 342 25.5 342C11.4167 342 0 353.417 0 367.5C0 381.583 11.4167 393 25.5 393C34.6254 393 42.6312 388.207 47.137 381H135.5H141H150.5C156.023 381 160.5 376.523 160.5 371V331C160.5 325.478 156.023 321 150.5 321H145.5C139.977 321 135.5 325.478 135.5 331V346C135.5 351.523 131.023 356 125.5 356H48.266Z" fill="#418FDA"/>
<path d="M48.266 356V357H47.6514L47.3738 356.452L48.266 356ZM47.137 381L46.2891 380.47L46.5829 380H47.137V381ZM47.3738 356.452C43.3335 348.469 35.0545 343 25.5 343V341C35.8375 341 44.7907 346.919 49.1583 355.549L47.3738 356.452ZM25.5 343C11.969 343 1 353.969 1 367.5H-1C-1 352.864 10.8645 341 25.5 341V343ZM1 367.5C1 381.031 11.969 392 25.5 392V394C10.8645 394 -1 382.136 -1 367.5H1ZM25.5 392C34.2664 392 41.9584 387.397 46.2891 380.47L47.9849 381.531C43.304 389.017 34.9843 394 25.5 394V392ZM135.5 382H47.137V380H135.5V382ZM141 382H135.5V380H141V382ZM150.5 382H141V380H150.5V382ZM161.5 371C161.5 377.076 156.575 382 150.5 382V380C155.471 380 159.5 375.971 159.5 371H161.5ZM161.5 331V371H159.5V331H161.5ZM150.5 320C156.575 320 161.5 324.925 161.5 331H159.5C159.5 326.03 155.471 322 150.5 322V320ZM145.5 320H150.5V322H145.5V320ZM134.5 331C134.5 324.925 139.425 320 145.5 320V322C140.529 322 136.5 326.03 136.5 331H134.5ZM134.5 346V331H136.5V346H134.5ZM125.5 355C130.471 355 134.5 350.971 134.5 346H136.5C136.5 352.076 131.575 357 125.5 357V355ZM48.266 355H125.5V357H48.266V355Z" fill="black" mask="url(#path-6-inside-2_305_54)"/>
<mask id="path-8-inside-3_305_54" fill="white">
<path fill-rule="evenodd" clip-rule="evenodd" d="M482.234 357C486.438 348.694 495.054 343 505 343C519.083 343 530.5 354.417 530.5 368.5C530.5 382.583 519.083 394 505 394C495.875 394 487.869 389.207 483.363 382H395H389.5H380C374.477 382 370 377.523 370 372V332C370 326.478 374.477 322 380 322H385C390.523 322 395 326.478 395 332V347C395 352.523 399.477 357 405 357H482.234Z"/>
</mask>
<path fill-rule="evenodd" clip-rule="evenodd" d="M482.234 357C486.438 348.694 495.054 343 505 343C519.083 343 530.5 354.417 530.5 368.5C530.5 382.583 519.083 394 505 394C495.875 394 487.869 389.207 483.363 382H395H389.5H380C374.477 382 370 377.523 370 372V332C370 326.478 374.477 322 380 322H385C390.523 322 395 326.478 395 332V347C395 352.523 399.477 357 405 357H482.234Z" fill="#418FDA"/>
<path d="M482.234 357V358H482.849L483.126 357.452L482.234 357ZM483.363 382L484.211 381.47L483.917 381H483.363V382ZM483.126 357.452C487.167 349.469 495.445 344 505 344V342C494.662 342 485.709 347.919 481.342 356.549L483.126 357.452ZM505 344C518.531 344 529.5 354.969 529.5 368.5H531.5C531.5 353.864 519.636 342 505 342V344ZM529.5 368.5C529.5 382.031 518.531 393 505 393V395C519.636 395 531.5 383.136 531.5 368.5H529.5ZM505 393C496.234 393 488.542 388.397 484.211 381.47L482.515 382.531C487.196 390.017 495.516 395 505 395V393ZM395 383H483.363V381H395V383ZM389.5 383H395V381H389.5V383ZM380 383H389.5V381H380V383ZM369 372C369 378.076 373.925 383 380 383V381C375.029 381 371 376.971 371 372H369ZM369 332V372H371V332H369ZM380 321C373.925 321 369 325.925 369 332H371C371 327.03 375.029 323 380 323V321ZM385 321H380V323H385V321ZM396 332C396 325.925 391.075 321 385 321V323C389.971 323 394 327.03 394 332H396ZM396 347V332H394V347H396ZM405 356C400.029 356 396 351.971 396 347H394C394 353.076 398.925 358 405 358V356ZM482.234 356H405V358H482.234V356Z" fill="black" mask="url(#path-8-inside-3_305_54)"/>
<mask id="path-10-inside-4_305_54" fill="white">
<path fill-rule="evenodd" clip-rule="evenodd" d="M48.5572 189.595C44.4694 180.967 35.6815 175 25.5 175C11.4167 175 0 186.417 0 200.5C0 214.583 11.4167 226 25.5 226C34.363 226 42.17 221.478 46.7398 214.616L94.0007 214.108C99.5232 214.048 103.952 209.523 103.893 204.001L103.839 199.001C103.779 193.479 99.2544 189.05 93.7319 189.109L48.5572 189.595Z"/>
</mask>
<path fill-rule="evenodd" clip-rule="evenodd" d="M48.5572 189.595C44.4694 180.967 35.6815 175 25.5 175C11.4167 175 0 186.417 0 200.5C0 214.583 11.4167 226 25.5 226C34.363 226 42.17 221.478 46.7398 214.616L94.0007 214.108C99.5232 214.048 103.952 209.523 103.893 204.001L103.839 199.001C103.779 193.479 99.2544 189.05 93.7319 189.109L48.5572 189.595Z" fill="#418FDA"/>
<path d="M48.5572 189.595L48.568 190.595L47.9277 190.602L47.6535 190.023L48.5572 189.595ZM46.7398 214.616L45.9075 214.062L46.2005 213.622L46.7291 213.616L46.7398 214.616ZM94.0007 214.108L94.0114 215.108L94.0114 215.108L94.0007 214.108ZM103.893 204.001L104.893 203.99L104.893 203.99L103.893 204.001ZM103.839 199.001L102.839 199.012L102.839 199.012L103.839 199.001ZM93.7319 189.109L93.7426 190.109L93.7426 190.109L93.7319 189.109ZM47.6535 190.023C43.7249 181.731 35.2808 176 25.5 176V174C36.0823 174 45.2139 180.203 49.4609 189.167L47.6535 190.023ZM25.5 176C11.969 176 1 186.969 1 200.5H-1C-1 185.864 10.8645 174 25.5 174V176ZM1 200.5C1 214.031 11.969 225 25.5 225V227C10.8645 227 -1 215.136 -1 200.5H1ZM25.5 225C34.0145 225 41.5152 220.657 45.9075 214.062L47.5722 215.17C42.8248 222.299 34.7116 227 25.5 227V225ZM94.0114 215.108L46.7506 215.616L46.7291 213.616L93.9899 213.108L94.0114 215.108ZM104.893 203.99C104.958 210.065 100.086 215.042 94.0114 215.108L93.9899 213.108C98.9602 213.054 102.946 208.982 102.893 204.012L104.893 203.99ZM104.839 198.99L104.893 203.99L102.893 204.012L102.839 199.012L104.839 198.99ZM93.7211 188.109C99.7959 188.044 104.773 192.916 104.839 198.99L102.839 199.012C102.785 194.042 98.7129 190.056 93.7426 190.109L93.7211 188.109ZM48.5465 188.595L93.7211 188.109L93.7426 190.109L48.568 190.595L48.5465 188.595Z" fill="black" mask="url(#path-10-inside-4_305_54)"/>
<mask id="path-12-inside-5_305_54" fill="white">
<path fill-rule="evenodd" clip-rule="evenodd" d="M484.336 189.595C488.424 180.967 497.212 175 507.393 175C521.476 175 532.893 186.417 532.893 200.5C532.893 214.583 521.476 226 507.393 226C498.53 226 490.723 221.478 486.153 214.616L438.892 214.108C433.37 214.048 428.941 209.523 429 204.001L429.054 199.001C429.114 193.479 433.639 189.05 439.161 189.109L484.336 189.595Z"/>
</mask>
<path fill-rule="evenodd" clip-rule="evenodd" d="M484.336 189.595C488.424 180.967 497.212 175 507.393 175C521.476 175 532.893 186.417 532.893 200.5C532.893 214.583 521.476 226 507.393 226C498.53 226 490.723 221.478 486.153 214.616L438.892 214.108C433.37 214.048 428.941 209.523 429 204.001L429.054 199.001C429.114 193.479 433.639 189.05 439.161 189.109L484.336 189.595Z" fill="#418FDA"/>
<path d="M484.336 189.595L484.325 190.595L484.965 190.602L485.24 190.023L484.336 189.595ZM486.153 214.616L486.986 214.062L486.693 213.622L486.164 213.616L486.153 214.616ZM438.892 214.108L438.882 215.108L438.882 215.108L438.892 214.108ZM429 204.001L428.001 203.99L428.001 203.99L429 204.001ZM429.054 199.001L430.054 199.012L430.054 199.012L429.054 199.001ZM439.161 189.109L439.15 190.109L439.15 190.109L439.161 189.109ZM485.24 190.023C489.168 181.731 497.612 176 507.393 176V174C496.811 174 487.679 180.203 483.432 189.167L485.24 190.023ZM507.393 176C520.924 176 531.893 186.969 531.893 200.5H533.893C533.893 185.864 522.029 174 507.393 174V176ZM531.893 200.5C531.893 214.031 520.924 225 507.393 225V227C522.029 227 533.893 215.136 533.893 200.5H531.893ZM507.393 225C498.879 225 491.378 220.657 486.986 214.062L485.321 215.17C490.068 222.299 498.181 227 507.393 227V225ZM438.882 215.108L486.142 215.616L486.164 213.616L438.903 213.108L438.882 215.108ZM428.001 203.99C427.935 210.065 432.807 215.042 438.882 215.108L438.903 213.108C433.933 213.054 429.947 208.982 430 204.012L428.001 203.99ZM428.054 198.99L428.001 203.99L430 204.012L430.054 199.012L428.054 198.99ZM439.172 188.109C433.097 188.044 428.12 192.916 428.054 198.99L430.054 199.012C430.108 194.042 434.18 190.056 439.15 190.109L439.172 188.109ZM484.347 188.595L439.172 188.109L439.15 190.109L484.325 190.595L484.347 188.595Z" fill="black" mask="url(#path-12-inside-5_305_54)"/>
<mask id="path-14-inside-6_305_54" fill="white">
<path fill-rule="evenodd" clip-rule="evenodd" d="M482.234 36.9995C486.438 45.3058 495.054 51 505 51C519.083 51 530.5 39.5833 530.5 25.5C530.5 11.4167 519.083 0 505 0C495.875 0 487.869 4.79332 483.363 11.9995H395H389.5H380C374.477 11.9995 370 16.4767 370 21.9995V61.9995C370 67.5224 374.477 71.9995 380 71.9995H385C390.523 71.9995 395 67.5224 395 61.9995V46.9995C395 41.4767 399.477 36.9995 405 36.9995H482.234Z"/>
</mask>
<path fill-rule="evenodd" clip-rule="evenodd" d="M482.234 36.9995C486.438 45.3058 495.054 51 505 51C519.083 51 530.5 39.5833 530.5 25.5C530.5 11.4167 519.083 0 505 0C495.875 0 487.869 4.79332 483.363 11.9995H395H389.5H380C374.477 11.9995 370 16.4767 370 21.9995V61.9995C370 67.5224 374.477 71.9995 380 71.9995H385C390.523 71.9995 395 67.5224 395 61.9995V46.9995C395 41.4767 399.477 36.9995 405 36.9995H482.234Z" fill="#418FDA"/>
<path d="M482.234 36.9995V35.9995H482.849L483.126 36.5479L482.234 36.9995ZM483.363 11.9995L484.211 12.5297L483.917 12.9995H483.363V11.9995ZM483.126 36.5479C487.167 44.5309 495.445 50 505 50V52C494.662 52 485.709 46.0806 481.342 37.4511L483.126 36.5479ZM505 50C518.531 50 529.5 39.031 529.5 25.5H531.5C531.5 40.1355 519.636 52 505 52V50ZM529.5 25.5C529.5 11.969 518.531 1 505 1V-1C519.636 -1 531.5 10.8645 531.5 25.5H529.5ZM505 1C496.234 1 488.542 5.60349 484.211 12.5297L482.515 11.4693C487.196 3.98316 495.516 -1 505 -1V1ZM395 10.9995H483.363V12.9995H395V10.9995ZM389.5 10.9995H395V12.9995H389.5V10.9995ZM380 10.9995H389.5V12.9995H380V10.9995ZM369 21.9995C369 15.9244 373.925 10.9995 380 10.9995V12.9995C375.029 12.9995 371 17.0289 371 21.9995H369ZM369 61.9995V21.9995H371V61.9995H369ZM380 72.9995C373.925 72.9995 369 68.0746 369 61.9995H371C371 66.9701 375.029 70.9995 380 70.9995V72.9995ZM385 72.9995H380V70.9995H385V72.9995ZM396 61.9995C396 68.0746 391.075 72.9995 385 72.9995V70.9995C389.971 70.9995 394 66.9701 394 61.9995H396ZM396 46.9995V61.9995H394V46.9995H396ZM405 37.9995C400.029 37.9995 396 42.0289 396 46.9995H394C394 40.9244 398.925 35.9995 405 35.9995V37.9995ZM482.234 37.9995H405V35.9995H482.234V37.9995Z" fill="black" mask="url(#path-14-inside-6_305_54)"/>
</g>
<defs>
<clipPath id="clip0_305_54">
<rect width="533" height="394" fill="white"/>
</clipPath>
</defs>
</svg>
