<svg viewBox="0 0 533 394" fill="none" xmlns="http://www.w3.org/2000/svg">
<g clip-path="url(#clip0_305_54)">
<path fill-rule="evenodd" clip-rule="evenodd" d="M241 43.9995C235.477 43.9995 231 48.4767 231 53.9995V64.2182C231 82.0363 209.457 90.9596 196.858 78.3603L189.569 71.071C185.663 67.1657 179.332 67.1657 175.426 71.071L140.071 106.426C136.166 110.332 136.166 116.663 140.071 120.568L146.86 127.357C159.459 139.957 150.536 161.499 132.718 161.499H123.5C117.977 161.499 113.5 165.977 113.5 171.499L113.5 221.499C113.5 227.022 117.977 231.499 123.5 231.499H132.883C150.701 231.499 159.625 253.042 147.025 265.642L140.071 272.596C136.166 276.501 136.166 282.833 140.071 286.738L175.426 322.093C179.332 325.999 185.663 325.999 189.569 322.093L196.858 314.804C209.457 302.205 231 311.128 231 328.946V339C231 344.522 235.477 349 241 349H291C296.523 349 301 344.522 301 339V329.782C301 311.964 322.543 303.04 335.142 315.64L341.596 322.094C345.502 325.999 351.833 325.999 355.739 322.094L391.094 286.739C394.999 282.833 394.999 276.502 391.094 272.596L384.139 265.642C371.54 253.042 380.463 231.5 398.281 231.5H408.5C414.023 231.5 418.5 227.022 418.5 221.5V171.5C418.5 165.977 414.023 161.5 408.5 161.5H398.447C380.629 161.5 371.705 139.957 384.305 127.357L391.094 120.568C394.999 116.663 394.999 110.331 391.094 106.426L355.739 71.0706C351.833 67.1653 345.502 67.1653 341.596 71.0706L335.142 77.5249C322.543 90.1242 301 81.2009 301 63.3828V53.9995C301 48.4767 296.523 43.9995 291 43.9995H241Z" fill="#418FDA"/>
<circle cx="266" cy="197" r="117.5" fill="#418FDA" stroke="#418FDA" stroke-width="15"/>
<circle cx="266.5" cy="196.5" r="64.5" stroke="#F5F5F5" stroke-width="20"/>
<path fill-rule="evenodd" clip-rule="evenodd" d="M48.266 36.9995C44.0621 45.3058 35.446 51 25.5 51C11.4167 51 0 39.5833 0 25.5C0 11.4167 11.4167 0 25.5 0C34.6254 0 42.6312 4.79332 47.137 11.9995H135.5H141H150.5C156.023 11.9995 160.5 16.4767 160.5 21.9995V61.9995C160.5 67.5224 156.023 71.9995 150.5 71.9995H145.5C139.977 71.9995 135.5 67.5224 135.5 61.9995V46.9995C135.5 41.4767 131.023 36.9995 125.5 36.9995H48.266Z" fill="#418FDA"/>
<path fill-rule="evenodd" clip-rule="evenodd" d="M48.266 356C44.0621 347.694 35.446 342 25.5 342C11.4167 342 0 353.417 0 367.5C0 381.583 11.4167 393 25.5 393C34.6254 393 42.6312 388.207 47.137 381H135.5H141H150.5C156.023 381 160.5 376.523 160.5 371V331C160.5 325.478 156.023 321 150.5 321H145.5C139.977 321 135.5 325.478 135.5 331V346C135.5 351.523 131.023 356 125.5 356H48.266Z" fill="#418FDA"/>
<path fill-rule="evenodd" clip-rule="evenodd" d="M482.234 357C486.438 348.694 495.054 343 505 343C519.083 343 530.5 354.417 530.5 368.5C530.5 382.583 519.083 394 505 394C495.875 394 487.869 389.207 483.363 382H395H389.5H380C374.477 382 370 377.523 370 372V332C370 326.478 374.477 322 380 322H385C390.523 322 395 326.478 395 332V347C395 352.523 399.477 357 405 357H482.234Z" fill="#418FDA"/>
<path fill-rule="evenodd" clip-rule="evenodd" d="M48.5572 189.595C44.4694 180.967 35.6815 175 25.5 175C11.4167 175 0 186.417 0 200.5C0 214.583 11.4167 226 25.5 226C34.363 226 42.17 221.478 46.7398 214.616L94.0007 214.108C99.5232 214.048 103.952 209.523 103.893 204.001L103.839 199.001C103.779 193.479 99.2544 189.05 93.7319 189.109L48.5572 189.595Z" fill="#418FDA"/>
<path fill-rule="evenodd" clip-rule="evenodd" d="M484.336 189.595C488.424 180.967 497.212 175 507.393 175C521.476 175 532.893 186.417 532.893 200.5C532.893 214.583 521.476 226 507.393 226C498.53 226 490.723 221.478 486.153 214.616L438.892 214.108C433.37 214.048 428.941 209.523 429 204.001L429.054 199.001C429.114 193.479 433.639 189.05 439.161 189.109L484.336 189.595Z" fill="#418FDA"/>
<path fill-rule="evenodd" clip-rule="evenodd" d="M482.234 36.9995C486.438 45.3058 495.054 51 505 51C519.083 51 530.5 39.5833 530.5 25.5C530.5 11.4167 519.083 0 505 0C495.875 0 487.869 4.79332 483.363 11.9995H395H389.5H380C374.477 11.9995 370 16.4767 370 21.9995V61.9995C370 67.5224 374.477 71.9995 380 71.9995H385C390.523 71.9995 395 67.5224 395 61.9995V46.9995C395 41.4767 399.477 36.9995 405 36.9995H482.234Z" fill="#418FDA"/>
</g>
<defs>
<clipPath id="clip0_305_54">
<rect width="533" height="394" fill="white"/>
</clipPath>
</defs>
</svg>
